<svg xmlns="http://www.w3.org/2000/svg" version="1.1" width="343" height="240">
<path d="M0 0 C11.88 0 23.76 0 36 0 C36 0.66 36 1.32 36 2 C34.02 2.33 32.04 2.66 30 3 C30.41588046 9.19518473 31.60251894 14.26689311 34 20 C35.0415625 20.02578125 36.083125 20.0515625 37.15625 20.078125 C47.56316732 20.45097943 57.00641607 22.10818231 67 25 C67.12246094 24.28714844 67.24492187 23.57429688 67.37109375 22.83984375 C68.01651474 19.92542724 68.96504015 17.33565124 70.0625 14.5625 C71.56621377 10.54535852 72.46965549 7.34431332 72 3 C70.02 2.67 68.04 2.34 66 2 C66 1.34 66 0.68 66 0 C74.91 0 83.82 0 93 0 C93 0.66 93 1.32 93 2 C91.9275 2.20625 90.855 2.4125 89.75 2.625 C84.21590141 4.65416948 82.78339309 8.37032675 80.296875 13.54296875 C79.53117187 15.34701172 79.53117187 15.34701172 78.75 17.1875 C78.22921875 18.39792969 77.7084375 19.60835937 77.171875 20.85546875 C75.82539538 23.90922303 75.82539538 23.90922303 76 27 C78.99869658 27.96244398 81.99918462 28.91918473 85 29.875 C85.83917969 30.14441406 86.67835938 30.41382812 87.54296875 30.69140625 C92.6625581 32.31856256 97.78097949 33.72958053 103 35 C104.485 35.495 104.485 35.495 106 36 C105.9557805 31.94247958 105.88588169 27.88628418 105.79248047 23.82958984 C105.76430901 22.45048349 105.74307528 21.07121682 105.72900391 19.69189453 C105.70752455 17.70577051 105.65876868 15.72000091 105.609375 13.734375 C105.5779541 11.94338379 105.5779541 11.94338379 105.54589844 10.11621094 C104.89817064 6.41871647 103.96994815 5.23047527 101 3 C97.85518209 2.19684346 97.85518209 2.19684346 95 2 C95 1.34 95 0.68 95 0 C105.89 0 116.78 0 128 0 C128 0.66 128 1.32 128 2 C126.865625 2.28875 125.73125 2.5775 124.5625 2.875 C122.7990625 3.431875 122.7990625 3.431875 121 4 C119.5235764 6.9528472 119.77727061 9.68448983 119.68359375 12.9765625 C119.6524221 14.00443375 119.6524221 14.00443375 119.62062073 15.05307007 C119.55519815 17.24361069 119.49627446 19.43427189 119.4375 21.625 C119.39430782 23.1093875 119.3506933 24.59376278 119.30664062 26.078125 C119.19952447 29.71862084 119.09823638 33.35925251 119 37 C119.66 37 120.32 37 121 37 C121.38937744 36.11948975 121.38937744 36.11948975 121.78662109 35.22119141 C123.08569735 32.84312385 124.46564686 31.33510814 126.4140625 29.4609375 C127.08945068 28.80262939 127.76483887 28.14432129 128.46069336 27.46606445 C129.17491455 26.77601318 129.88913574 26.08596191 130.625 25.375 C141.96965402 15.26244861 141.96965402 15.26244861 148 2 C147.34 2 146.68 2 146 2 C146 1.34 146 0.68 146 0 C155.24 0 164.48 0 174 0 C174 0.66 174 1.32 174 2 C172.700625 2.20625 171.40125 2.4125 170.0625 2.625 C158.59770045 5.27413065 150.85178523 14.78025136 142.9375 22.875 C141.77479642 24.05278257 140.61138998 25.22987171 139.44726562 26.40625 C136.62334755 29.26290729 133.80909283 32.12876615 131 35 C136.59417382 34.58744338 141.22137635 33.81141325 146.375 31.4375 C151.71954674 29 151.71954674 29 155 29 C136.77964227 43.34151406 120.37225909 49.48898273 96.84912109 46.74951172 C93.14328665 46.1229962 89.57791897 45.13651544 86 44 C85.2678125 43.7834375 84.535625 43.566875 83.78125 43.34375 C80.37466179 42.2760134 77.05895376 41.02305966 73.734375 39.72265625 C61.69440358 35.03434264 49.43177424 31.53175405 37 28 C41.29 39.22 45.58 50.44 50 62 C52.11921697 59.88078303 52.81184978 58.39068602 53.9453125 55.6484375 C54.29980469 54.79765625 54.65429688 53.946875 55.01953125 53.0703125 C55.38433594 52.18085938 55.74914062 51.29140625 56.125 50.375 C56.49753906 49.4778125 56.87007812 48.580625 57.25390625 47.65625 C58.17370799 45.43929196 59.08886662 43.22053146 60 41 C61.18589722 41.39324463 61.18589722 41.39324463 62.39575195 41.79443359 C65.38149424 42.78059433 68.36932833 43.76007699 71.35864258 44.73535156 C73.26742852 45.36024462 75.17378785 45.99253459 77.08007812 46.625 C101.1047856 54.4440649 121.14222193 53.96003863 143.79785156 42.71679688 C145.1933325 42.00472582 146.58244584 41.27999283 147.96386719 40.54101562 C152.72146077 38 152.72146077 38 156 38 C154.3970551 39.29318256 152.79259858 40.58449156 151.1875 41.875 C150.29417969 42.59429687 149.40085938 43.31359375 148.48046875 44.0546875 C146 46 146 46 143 48 C145.0035253 54.16580771 149.51622135 58.00113024 154.00097656 62.44702148 C155.48004387 63.91765763 156.93960978 65.40580344 158.3984375 66.89648438 C165.65490399 74.20806016 173.24396143 81.53234615 184 82 C184 82.66 184 83.32 184 84 C180.18809633 84.17616334 176.37725502 84.28146835 172.5625 84.375 C171.49322266 84.42527344 170.42394531 84.47554688 169.32226562 84.52734375 C159.79480489 84.70215954 155.13332307 81.65243784 148.1796875 75.5078125 C147.41914063 74.72148437 146.65859375 73.93515625 145.875 73.125 C145.04613281 72.2690625 144.21726563 71.413125 143.36328125 70.53125 C134.77604366 61.33367982 134.77604366 61.33367982 132.6953125 57.7578125 C131.0681255 55.67327352 131.0681255 55.67327352 128.08203125 55.828125 C127.00308594 55.96734375 125.92414063 56.1065625 124.8125 56.25 C123.72582031 56.37890625 122.63914062 56.5078125 121.51953125 56.640625 C120.68808594 56.75921875 119.85664063 56.8778125 119 57 C119.1098283 60.43816147 119.24046863 63.87522348 119.375 67.3125 C119.4059375 68.28896484 119.436875 69.26542969 119.46875 70.27148438 C119.50742188 71.20927734 119.54609375 72.14707031 119.5859375 73.11328125 C119.6173584 73.97735596 119.6487793 74.84143066 119.68115234 75.73168945 C119.87188037 78.27742445 119.87188037 78.27742445 122 81 C123.96361864 81.57748803 123.96361864 81.57748803 126.125 81.6875 C127.40375 81.790625 128.6825 81.89375 130 82 C130 82.66 130 83.32 130 84 C118.78 84 107.56 84 96 84 C96 83.34 96 82.68 96 82 C97.7015625 81.814375 97.7015625 81.814375 99.4375 81.625 C101.2009375 81.315625 101.2009375 81.315625 103 81 C104.23060421 78.53879159 104.2057723 76.74223134 104.31640625 73.9921875 C104.35830078 73.00605469 104.40019531 72.01992187 104.44335938 71.00390625 C104.48267578 69.97136719 104.52199219 68.93882812 104.5625 67.875 C104.62727539 66.31458984 104.62727539 66.31458984 104.69335938 64.72265625 C104.7996288 62.14857472 104.90166583 59.57439492 105 57 C103.81535156 56.86980469 102.63070312 56.73960937 101.41015625 56.60546875 C91.43095269 55.34902321 82.02142161 51.80212305 72.79858398 47.9309082 C69.51288159 46.478422 69.51288159 46.478422 66 46 C65.63237549 46.8564209 65.26475098 47.7128418 64.88598633 48.59521484 C63.49982444 51.82051848 62.11100347 55.04465115 60.72045898 58.26806641 C60.12306185 59.65433617 59.52667935 61.04104369 58.93139648 62.42822266 C55.50908452 70.40114456 52.01431441 78.30178631 48 86 C45.7378984 85.06802205 44.30070566 84.46484912 42.95193481 82.37983704 C42.69467621 81.73669052 42.4374176 81.09354401 42.17236328 80.4309082 C41.72136765 79.33254387 41.72136765 79.33254387 41.26126099 78.21199036 C40.95074799 77.41629135 40.64023499 76.62059235 40.3203125 75.80078125 C39.98506561 74.9735405 39.64981873 74.14629974 39.30441284 73.29399109 C38.23173193 70.63846468 37.17817867 67.97581292 36.125 65.3125 C35.42442489 63.5691595 34.72261424 61.82631497 34.01953125 60.08398438 C32.64745069 56.67755446 31.28472588 53.26763539 29.93066406 49.85400391 C28.68541837 46.71534616 27.42800255 43.58220284 26.15527344 40.45458984 C25.87303925 39.75859177 25.59080505 39.06259369 25.30001831 38.34550476 C24.54424021 36.48369704 23.78565142 34.62303098 23.02685547 32.76245117 C22 30 22 30 22 28 C14.285229 28.32259132 14.285229 28.32259132 7 30.625 C4 32 4 32 1 31 C2.86967605 30.01070539 4.74601378 29.03399531 6.625 28.0625 C7.66914062 27.51722656 8.71328125 26.97195312 9.7890625 26.41015625 C12.92416918 25.03330283 15.61454632 24.40157784 19 24 C18.09417407 21.59956128 17.17591309 19.20518406 16.25 16.8125 C15.99734375 16.13896484 15.7446875 15.46542969 15.484375 14.77148438 C13.86503835 10.62193421 12.20287994 7.20287994 9 4 C6.68189443 2.99424463 6.68189443 2.99424463 4.25 2.6875 C3.45078125 2.54699219 2.6515625 2.40648438 1.828125 2.26171875 C1.22484375 2.17535156 0.6215625 2.08898437 0 2 C0 1.34 0 0.68 0 0 Z " fill="#D6AD54" transform="translate(71,77)"/>
<path d="M0 0 C8.91 0 17.82 0 27 0 C27 0.66 27 1.32 27 2 C25.9275 2.20625 24.855 2.4125 23.75 2.625 C18.21590141 4.65416948 16.78339309 8.37032675 14.296875 13.54296875 C13.78640625 14.74566406 13.2759375 15.94835937 12.75 17.1875 C12.22921875 18.39792969 11.7084375 19.60835937 11.171875 20.85546875 C9.82539538 23.90922303 9.82539538 23.90922303 10 27 C12.99869658 27.96244398 15.99918462 28.91918473 19 29.875 C19.83917969 30.14441406 20.67835938 30.41382812 21.54296875 30.69140625 C26.6625581 32.31856256 31.78097949 33.72958053 37 35 C37.99 35.33 38.98 35.66 40 36 C39.9557805 31.94247958 39.88588169 27.88628418 39.79248047 23.82958984 C39.76430901 22.45048349 39.74307528 21.07121682 39.72900391 19.69189453 C39.70752455 17.70577051 39.65876868 15.72000091 39.609375 13.734375 C39.58842773 12.54038086 39.56748047 11.34638672 39.54589844 10.11621094 C38.89817064 6.41871647 37.96994815 5.23047527 35 3 C31.85518209 2.19684346 31.85518209 2.19684346 29 2 C29 1.34 29 0.68 29 0 C39.89 0 50.78 0 62 0 C62 0.66 62 1.32 62 2 C60.865625 2.28875 59.73125 2.5775 58.5625 2.875 C56.7990625 3.431875 56.7990625 3.431875 55 4 C53.5235764 6.9528472 53.77727061 9.68448983 53.68359375 12.9765625 C53.66281265 13.66181 53.64203156 14.3470575 53.62062073 15.05307007 C53.55519815 17.24361069 53.49627446 19.43427189 53.4375 21.625 C53.39430782 23.1093875 53.3506933 24.59376278 53.30664062 26.078125 C53.19952447 29.71862084 53.09823638 33.35925251 53 37 C53.66 37 54.32 37 55 37 C55.25958496 36.41299316 55.51916992 35.82598633 55.78662109 35.22119141 C57.08569735 32.84312385 58.46564686 31.33510814 60.4140625 29.4609375 C61.08945068 28.80262939 61.76483887 28.14432129 62.46069336 27.46606445 C63.53202515 26.43098755 63.53202515 26.43098755 64.625 25.375 C75.96965402 15.26244861 75.96965402 15.26244861 82 2 C81.34 2 80.68 2 80 2 C80 1.34 80 0.68 80 0 C89.24 0 98.48 0 108 0 C108 0.66 108 1.32 108 2 C106.700625 2.20625 105.40125 2.4125 104.0625 2.625 C92.59770045 5.27413065 84.85178523 14.78025136 76.9375 22.875 C75.77479642 24.05278257 74.61138998 25.22987171 73.44726562 26.40625 C70.62334755 29.26290729 67.80909283 32.12876615 65 35 C70.59417382 34.58744338 75.22137635 33.81141325 80.375 31.4375 C85.71954674 29 85.71954674 29 89 29 C70.77964227 43.34151406 54.37225909 49.48898273 30.84912109 46.74951172 C27.14328665 46.1229962 23.57791897 45.13651544 20 44 C19.2678125 43.7834375 18.535625 43.566875 17.78125 43.34375 C15.49283644 42.62648605 13.25167005 41.82617668 11 41 C10.37593262 40.77376953 9.75186523 40.54753906 9.10888672 40.31445312 C6.94523908 39.52839949 4.78466393 38.73443016 2.625 37.9375 C1.92205811 37.6799292 1.21911621 37.4223584 0.49487305 37.15698242 C-2.61059296 35.99586044 -5.22796822 34.84802119 -8 33 C-6.68 32.34 -5.36 31.68 -4 31 C-4 28.69 -4 26.38 -4 24 C-2.35 24.33 -0.7 24.66 1 25 C1.12246094 24.28714844 1.24492187 23.57429688 1.37109375 22.83984375 C2.01651474 19.92542724 2.96504015 17.33565124 4.0625 14.5625 C5.56621377 10.54535852 6.46965549 7.34431332 6 3 C3.03 2.505 3.03 2.505 0 2 C0 1.34 0 0.68 0 0 Z " fill="#D2AA53" transform="translate(137,77)"/>
<path d="M0 0 C11.88 0 23.76 0 36 0 C36 0.66 36 1.32 36 2 C34.02 2.33 32.04 2.66 30 3 C30.41588046 9.19518473 31.60251894 14.26689311 34 20 C35.11117187 20.04898438 36.22234375 20.09796875 37.3671875 20.1484375 C56.67704882 21.07973941 56.67704882 21.07973941 61 23 C62.57986692 25.39154167 63.10089314 26.39464113 62.625 29.25 C62.41875 29.8275 62.2125 30.405 62 31 C62.66 31.33 63.32 31.66 64 32 C57.59997915 34.40000782 50.47859318 31.65563658 44.20703125 29.94921875 C43.16560974 29.66854553 43.16560974 29.66854553 42.10314941 29.38220215 C40.40159597 28.92333161 38.70072783 28.46192114 37 28 C37.63615234 29.61841797 37.63615234 29.61841797 38.28515625 31.26953125 C39.86423485 35.2973391 41.42541344 39.33189132 42.98144531 43.36865234 C43.65566263 45.11043429 44.33463506 46.85038372 45.01855469 48.58837891 C46.0042965 51.09584168 46.97239905 53.60953207 47.9375 56.125 C48.24373291 56.89303955 48.54996582 57.6610791 48.86547852 58.45239258 C51.14149285 64.46266671 52.09206111 69.72381667 50 76 C50.020625 77.155 50.04125 78.31 50.0625 79.5 C50 83 50 83 48 86 C45.7378984 85.06802205 44.30070566 84.46484912 42.95193481 82.37983704 C42.69467621 81.73669052 42.4374176 81.09354401 42.17236328 80.4309082 C41.72136765 79.33254387 41.72136765 79.33254387 41.26126099 78.21199036 C40.95074799 77.41629135 40.64023499 76.62059235 40.3203125 75.80078125 C39.98506561 74.9735405 39.64981873 74.14629974 39.30441284 73.29399109 C38.23173193 70.63846468 37.17817867 67.97581292 36.125 65.3125 C35.42442489 63.5691595 34.72261424 61.82631497 34.01953125 60.08398438 C32.64745069 56.67755446 31.28472588 53.26763539 29.93066406 49.85400391 C28.68541837 46.71534616 27.42800255 43.58220284 26.15527344 40.45458984 C25.87303925 39.75859177 25.59080505 39.06259369 25.30001831 38.34550476 C24.54424021 36.48369704 23.78565142 34.62303098 23.02685547 32.76245117 C22 30 22 30 22 28 C14.285229 28.32259132 14.285229 28.32259132 7 30.625 C4 32 4 32 1 31 C2.86967605 30.01070539 4.74601378 29.03399531 6.625 28.0625 C7.66914062 27.51722656 8.71328125 26.97195312 9.7890625 26.41015625 C12.92416918 25.03330283 15.61454632 24.40157784 19 24 C18.09417407 21.59956128 17.17591309 19.20518406 16.25 16.8125 C15.99734375 16.13896484 15.7446875 15.46542969 15.484375 14.77148438 C13.86503835 10.62193421 12.20287994 7.20287994 9 4 C6.68189443 2.99424463 6.68189443 2.99424463 4.25 2.6875 C3.45078125 2.54699219 2.6515625 2.40648438 1.828125 2.26171875 C1.22484375 2.17535156 0.6215625 2.08898437 0 2 C0 1.34 0 0.68 0 0 Z " fill="#F3EAA5" transform="translate(71,77)"/>
<path d="M0 0 C8.91 0 17.82 0 27 0 C27 0.66 27 1.32 27 2 C25.9275 2.20625 24.855 2.4125 23.75 2.625 C18.21590141 4.65416948 16.78339309 8.37032675 14.296875 13.54296875 C13.78640625 14.74566406 13.2759375 15.94835937 12.75 17.1875 C12.22921875 18.39792969 11.7084375 19.60835937 11.171875 20.85546875 C9.82539538 23.90922303 9.82539538 23.90922303 10 27 C15.28 28.65 20.56 30.3 26 32 C25.34 32.99 24.68 33.98 24 35 C23.34 35 22.68 35 22 35 C22.48484276 39.64586892 22.48484276 39.64586892 24 44 C12.99520074 41.90293161 2.51708795 37.77004661 -8 34 C-7.34515625 33.58105469 -6.6903125 33.16210938 -6.015625 32.73046875 C-5.35046875 32.15941406 -4.6853125 31.58835937 -4 31 C-3.66619186 27.37436186 -3.66619186 27.37436186 -4 24 C-2.35 24.33 -0.7 24.66 1 25 C1.12246094 24.28714844 1.24492187 23.57429688 1.37109375 22.83984375 C2.01651474 19.92542724 2.96504015 17.33565124 4.0625 14.5625 C5.56621377 10.54535852 6.46965549 7.34431332 6 3 C3.03 2.505 3.03 2.505 0 2 C0 1.34 0 0.68 0 0 Z " fill="#B48C38" transform="translate(137,77)"/>
<path d="M0 0 C1.32 0 2.64 0 4 0 C4.33 1.98 4.66 3.96 5 6 C5.99 6 6.98 6 8 6 C9.44133991 9.6922835 10.86468933 13.39097485 12.27246094 17.09619141 C12.98754527 18.96740874 13.71631451 20.83337796 14.4453125 22.69921875 C19.57832278 36.26503165 19.57832278 36.26503165 17 44 C17.020625 45.155 17.04125 46.31 17.0625 47.5 C17 51 17 51 15 54 C13.23168945 53.49169922 13.23168945 53.49169922 11 52 C9.58782466 49.37501525 8.41332065 46.87910319 7.29296875 44.1328125 C6.79848991 42.94786697 6.79848991 42.94786697 6.29402161 41.73898315 C5.60040097 40.06232858 4.91411141 38.38262523 4.23461914 36.70019531 C3.20061883 34.15726334 2.12655072 31.63402854 1.04882812 29.109375 C-2.66903602 20.14227319 -5.36974095 12.81521911 -3 3 C-2.01 2.67 -1.02 2.34 0 2 C0 1.34 0 0.68 0 0 Z " fill="#F8F1B3" transform="translate(104,109)"/>
<path d="M0 0 C8.91 0 17.82 0 27 0 C27 0.66 27 1.32 27 2 C25.9275 2.20625 24.855 2.4125 23.75 2.625 C18.80955955 4.43649483 17.39240428 7.1416217 15.12207031 11.80224609 C14.29731628 13.64745023 13.5154027 15.50444952 12.75 17.375 C12.481875 18.01566406 12.21375 18.65632813 11.9375 19.31640625 C11.28603727 20.8752635 10.64220328 22.43730535 10 24 C8.07421875 23.62109375 8.07421875 23.62109375 6 23 C4.8125 21.0625 4.8125 21.0625 4 19 C3.67 18.34 3.34 17.68 3 17 C3.55859375 15.265625 3.55859375 15.265625 4.4375 13.25 C5.86472078 9.69492279 6.29003888 6.86718504 6 3 C3.03 2.505 3.03 2.505 0 2 C0 1.34 0 0.68 0 0 Z " fill="#AA8331" transform="translate(137,77)"/>
<path d="M0 0 C2.6656263 2.6656263 3.46254144 5.6899866 4.625 9.1875 C4.85445312 9.83525391 5.08390625 10.48300781 5.3203125 11.15039062 C7.13838002 16.56671678 7.85094387 21.44716838 6 27 C6.020625 28.155 6.04125 29.31 6.0625 30.5 C6 34 6 34 4 37 C2.203125 36.5078125 2.203125 36.5078125 0 35 C-1.39273763 32.40195004 -2.30644385 29.66234189 -3.25 26.875 C-3.518125 26.12089844 -3.78625 25.36679688 -4.0625 24.58984375 C-4.72129341 22.73110521 -5.36237797 20.86610714 -6 19 C-5.01 19 -4.02 19 -3 19 C-2.63883954 17.5225254 -2.28624952 16.04295325 -1.9375 14.5625 C-1.74027344 13.73878906 -1.54304688 12.91507813 -1.33984375 12.06640625 C-1.22769531 11.38449219 -1.11554688 10.70257813 -1 10 C-1.33 9.67 -1.66 9.34 -2 9 C-2.26293056 4.96839809 -2.29404844 3.44107266 0 0 Z " fill="#EBE0A2" transform="translate(115,126)"/>
<path d="M0 0 C1.1725131 0.95117134 2.33787015 1.91117009 3.5 2.875 C4.47453125 3.67550781 4.47453125 3.67550781 5.46875 4.4921875 C5.9740625 4.98976562 6.479375 5.48734375 7 6 C7 6.66 7 7.32 7 8 C7.99 8.20625 8.98 8.4125 10 8.625 C14.05660502 9.76052027 16.87116925 11.92763279 20.10546875 14.5625 C24.23889272 17.6987887 27.85607156 18.4064698 33 19 C33 19.66 33 20.32 33 21 C29.12525543 21.11668214 25.25096604 21.18741231 21.375 21.25 C19.73337891 21.30027344 19.73337891 21.30027344 18.05859375 21.3515625 C11.71850463 21.42841207 7.81771869 21.29368613 3 17 C3.66 16.67 4.32 16.34 5 16 C3.92598892 13.08482708 3.22189824 11.22189824 1 9 C0.875 5.875 0.875 5.875 1 3 C0.34 2.67 -0.32 2.34 -1 2 C-0.67 1.34 -0.34 0.68 0 0 Z " fill="#E9C067" transform="translate(222,140)"/>
<path d="M0 0 C1.98 0.66 3.96 1.32 6 2 C5.41010944 6.92575277 3.85920062 11.09884554 1.83984375 15.5859375 C1.53051407 16.28772125 1.22118439 16.989505 0.90248108 17.71255493 C-0.07943541 19.93627371 -1.07079133 22.15563353 -2.0625 24.375 C-2.73305155 25.8890442 -3.40298004 27.40336451 -4.07226562 28.91796875 C-5.70765175 32.61521294 -7.35151235 36.30857988 -9 40 C-11 38 -11 38 -11.1875 35.5625 C-11 33 -11 33 -10 30 C-10.0825 29.02933594 -10.165 28.05867188 -10.25 27.05859375 C-10.33499597 21.28949238 -7.355618 16.19074406 -5 11.0625 C-4.52304688 9.99708984 -4.04609375 8.93167969 -3.5546875 7.83398438 C-2.38125124 5.21722151 -1.19616536 2.60643158 0 0 Z " fill="#D4C07D" transform="translate(131,118)"/>
<path d="M0 0 C0.33 0 0.66 0 1 0 C1.16748075 4.66287681 1.32805376 9.32592037 1.48217773 13.98925781 C1.53560756 15.57623729 1.59093771 17.16315395 1.64819336 18.75 C1.73007724 21.02850804 1.80516524 23.30715322 1.87890625 25.5859375 C1.90594131 26.29744965 1.93297638 27.00896179 1.96083069 27.74203491 C2.11387171 32.77225659 2.11387171 32.77225659 1 35 C1.66 35 2.32 35 3 35 C3 35.99 3 36.98 3 38 C0.525 38.495 0.525 38.495 -2 39 C-2 39.66 -2 40.32 -2 41 C-5.63 41 -9.26 41 -13 41 C-13 40.34 -13 39.68 -13 39 C-11.824375 38.8453125 -11.824375 38.8453125 -10.625 38.6875 C-7.66954819 38.22404978 -7.66954819 38.22404978 -6 35 C-7.32 35 -8.64 35 -10 35 C-10.5625 33.0625 -10.5625 33.0625 -11 31 C-10.67 30.67 -10.34 30.34 -10 30 C-9.84313751 28.44051458 -9.74923361 26.87457332 -9.68359375 25.30859375 C-9.64169922 24.36435547 -9.59980469 23.42011719 -9.55664062 22.44726562 C-9.49766602 20.95743164 -9.49766602 20.95743164 -9.4375 19.4375 C-9.39431641 18.44041016 -9.35113281 17.44332031 -9.30664062 16.41601562 C-9.20019702 13.9441585 -9.09818072 11.4721969 -9 9 C-8.01 9 -7.02 9 -6 9 C-5.34 7.68 -4.68 6.36 -4 5 C-3.67 14.9 -3.34 24.8 -3 35 C-2.34 35.33 -1.68 35.66 -1 36 C-1.33 34.68 -1.66 33.36 -2 32 C-1.34 32 -0.68 32 0 32 C0 21.44 0 10.88 0 0 Z " fill="#DAB159" transform="translate(189,83)"/>
<path d="M0 0 C1.9375 1 1.9375 1 4 3 C4.66549451 5.69924572 4.81680763 8.20631637 5 11 C4.34 11 3.68 11 3 11 C3.33 13.97 3.66 16.94 4 20 C-1.65020618 19.39891424 -6.66164461 17.92471317 -12 16 C-11.34 15.649375 -10.68 15.29875 -10 14.9375 C-7.58896039 13.03442858 -7.58896039 13.03442858 -7.75 9.3125 C-7.87375 7.6728125 -7.87375 7.6728125 -8 6 C-6.35 6.33 -4.7 6.66 -3 7 C-2.87625 6.21625 -2.7525 5.4325 -2.625 4.625 C-2 2 -2 2 0 0 Z " fill="#B38F40" transform="translate(141,95)"/>
<path d="M0 0 C5.13503344 0.64187918 9.9943454 1.68272247 15 3 C13 6 13 6 10 7 C15.95404276 9.68351223 20.47847375 11.27173026 27 11 C27.66 11.66 28.32 12.32 29 13 C26.69 13.66 24.38 14.32 22 15 C22 14.34 22 13.68 22 13 C19.03 12.67 16.06 12.34 13 12 C13 12.66 13 13.32 13 14 C11.35 14.33 9.7 14.66 8 15 C8.33 16.65 8.66 18.3 9 20 C8.34 20.33 7.68 20.66 7 21 C5.82807565 17.87694627 4.66336124 14.75125261 3.5 11.625 C3.16613281 10.73554687 2.83226563 9.84609375 2.48828125 8.9296875 C2.01455078 7.65351562 2.01455078 7.65351562 1.53125 6.3515625 C1.09135742 5.17327881 1.09135742 5.17327881 0.64257812 3.97119141 C0 2 0 2 0 0 Z " fill="#131410" transform="translate(108,105)"/>
<path d="M0 0 C9.24 0 18.48 0 28 0 C28 0.66 28 1.32 28 2 C26.700625 2.20625 25.40125 2.4125 24.0625 2.625 C16.55361658 4.28050186 10.79345669 9.14097181 5 14 C4.01 13.34 3.02 12.68 2 12 C1.70703125 9.8359375 1.70703125 9.8359375 1.8125 7.375 C1.83957031 6.55773437 1.86664063 5.74046875 1.89453125 4.8984375 C1.94673828 3.95871094 1.94673828 3.95871094 2 3 C1.34 2.67 0.68 2.34 0 2 C0 1.34 0 0.68 0 0 Z " fill="#D2A854" transform="translate(217,77)"/>
<path d="M0 0 C1.22203125 0.31710938 1.22203125 0.31710938 2.46875 0.640625 C8.04067007 1.85877757 13.47593771 2.2557 19.15625 2.515625 C20.44982422 2.57508301 20.44982422 2.57508301 21.76953125 2.63574219 C23.83570147 2.7262617 25.90219951 2.80924788 27.96875 2.890625 C27.96875 3.220625 27.96875 3.550625 27.96875 3.890625 C25.32875 4.220625 22.68875 4.550625 19.96875 4.890625 C23.15637365 7.01570744 25.23387223 7.3926413 28.96875 7.890625 C28.96875 8.220625 28.96875 8.550625 28.96875 8.890625 C4.59027778 9.546875 4.59027778 9.546875 -4.03125 5.890625 C-4.36125 4.900625 -4.69125 3.910625 -5.03125 2.890625 C-2.64171512 -0.1422462 -2.64171512 -0.1422462 0 0 Z " fill="#161511" transform="translate(161.03125,121.109375)"/>
<path d="M0 0 C5.99215668 -0.22193173 12.34960679 -0.226549 18 2 C19.61821272 4.3887902 20.1031801 5.38091941 19.625 8.25 C19.315625 9.11625 19.315625 9.11625 19 10 C19.66 10.33 20.32 10.66 21 11 C14.71638318 13.35635631 7.20771426 10.66278061 1 9 C4.75 5.125 4.75 5.125 7 4 C5.87465895 2.64381501 5.87465895 2.64381501 2.9375 2.9375 C1.968125 2.958125 0.99875 2.97875 0 3 C0 2.01 0 1.02 0 0 Z " fill="#DCC783" transform="translate(114,98)"/>
<path d="M0 0 C0.9132605 0.30236572 0.9132605 0.30236572 1.8449707 0.61083984 C4.66506282 1.53975487 7.48870578 2.45740342 10.3125 3.375 C11.74819336 3.85066406 11.74819336 3.85066406 13.21289062 4.3359375 C22.26083507 7.2605256 31.19670942 9.06119066 40.6875 9.625 C41.88761719 9.69976562 43.08773437 9.77453125 44.32421875 9.8515625 C45.20722656 9.90054688 46.09023437 9.94953125 47 10 C44.35261084 11.4606285 43.10551666 12 40 12 C40 18.6 40 25.2 40 32 C39.67 32 39.34 32 39 32 C39 26.06 39 20.12 39 14 C36.36 13.67 33.72 13.34 31 13 C20.18592167 10.57952037 10.13970333 6.37013848 0 2 C0 1.34 0 0.68 0 0 Z " fill="#B48F3C" transform="translate(137,120)"/>
<path d="M0 0 C3.96 0.33 7.92 0.66 12 1 C12 1.99 12 2.98 12 4 C11.01 4.66 10.02 5.32 9 6 C10.32 6.66 11.64 7.32 13 8 C12.3125 9.9375 12.3125 9.9375 11 12 C8.11178956 13.09283638 6.43528741 13.10616766 3.4375 12.375 C0.48890186 10.71168823 -1.05352019 8.73949011 -3 6 C-2.01 6 -1.02 6 0 6 C-0.185625 5.38125 -0.37125 4.7625 -0.5625 4.125 C-1 2 -1 2 0 0 Z " fill="#C39C45" transform="translate(160,110)"/>
<path d="M0 0 C1.1725131 0.95117134 2.33787015 1.91117009 3.5 2.875 C4.47453125 3.67550781 4.47453125 3.67550781 5.46875 4.4921875 C5.9740625 4.98976562 6.479375 5.48734375 7 6 C7 6.66 7 7.32 7 8 C7.66 8 8.32 8 9 8 C9 9.98 9 11.96 9 14 C9.33 13.67 9.66 13.34 10 13 C11.37562854 14.28965176 12.70766393 15.62689293 14 17 C14 17.66 14 18.32 14 19 C13.34 19 12.68 19 12 19 C12 19.66 12 20.32 12 21 C7.68607774 20.5206753 5.83430453 19.2542015 3 16 C3.66 16 4.32 16 5 16 C3.92598892 13.08482708 3.22189824 11.22189824 1 9 C0.875 5.875 0.875 5.875 1 3 C0.34 2.67 -0.32 2.34 -1 2 C-0.67 1.34 -0.34 0.68 0 0 Z " fill="#DCB25A" transform="translate(222,140)"/>
<path d="M0 0 C1.98 0.66 3.96 1.32 6 2 C5.41161801 6.84111765 3.92346884 10.96071195 1.9375 15.375 C1.65583984 16.01566406 1.37417969 16.65632813 1.08398438 17.31640625 C0.39540579 18.88029659 -0.30144711 20.44053941 -1 22 C-1.33 22 -1.66 22 -2 22 C-2.33 19.03 -2.66 16.06 -3 13 C-3.66 13 -4.32 13 -5 13 C-4.54554036 11.58208592 -4.08625056 10.16571954 -3.625 8.75 C-3.24214844 7.56664063 -3.24214844 7.56664063 -2.8515625 6.359375 C-2.04826333 4.13372042 -1.10288338 2.09068328 0 0 Z " fill="#CBB46D" transform="translate(131,118)"/>
<path d="M0 0 C0.66 0.33 1.32 0.66 2 1 C3.33599921 0.67751743 4.66893378 0.34227417 6 0 C8.625 -0.25 8.625 -0.25 11 0 C11.66 0.99 12.32 1.98 13 3 C13.33 2.34 13.66 1.68 14 1 C13.77734375 2.86328125 13.77734375 2.86328125 13 5 C6.99971123 8.81836558 -0.0345215 9.70359666 -7 10 C-7 9.34 -7 8.68 -7 8 C-6.030625 7.608125 -5.06125 7.21625 -4.0625 6.8125 C-0.77823609 5.32405113 -0.77823609 5.32405113 -0.125 2.3125 C-0.08375 1.549375 -0.0425 0.78625 0 0 Z " fill="#D5AB51" transform="translate(194,114)"/>
<path d="M0 0 C2.64 0 5.28 0 8 0 C8 0.99 8 1.98 8 3 C11.465 2.505 11.465 2.505 15 2 C15.33 2.99 15.66 3.98 16 5 C13.48177725 7.42472438 12.32466794 7.99254989 8.765625 8.07421875 C7.60546875 7.94660156 6.4453125 7.81898437 5.25 7.6875 C3.49429688 7.50767578 3.49429688 7.50767578 1.703125 7.32421875 C0.81109375 7.21722656 -0.0809375 7.11023438 -1 7 C-1 3 -1 3 0 0 Z " fill="#FBF5B6" transform="translate(106,98)"/>
<path d="M0 0 C2.97 0.99 5.94 1.98 9 3 C7.68 3.33 6.36 3.66 5 4 C4.67 5.32 4.34 6.64 4 8 C5.32 8.33 6.64 8.66 8 9 C7.34 9.66 6.68 10.32 6 11 C6 11.99 6 12.98 6 14 C3 15 3 15 0.8125 14.125 C-1.70414486 11.17445086 -1.35754783 8.92256298 -1.23828125 5.15625 C-1 3 -1 3 0 0 Z " fill="#A8812F" transform="translate(145,103)"/>
<path d="M0 0 C0.66 0.33 1.32 0.66 2 1 C0.3970551 2.29318256 -1.20740142 3.58449156 -2.8125 4.875 C-3.70582031 5.59429687 -4.59914062 6.31359375 -5.51953125 7.0546875 C-8 9 -8 9 -11 11 C-10.67 12.32 -10.34 13.64 -10 15 C-10.99 15 -11.98 15 -13 15 C-13 14.34 -13 13.68 -13 13 C-14.65 13.33 -16.3 13.66 -18 14 C-18 13.01 -18 12.02 -18 11 C-18.66 10.67 -19.32 10.34 -20 10 C-18.33710938 9.29423828 -18.33710938 9.29423828 -16.640625 8.57421875 C-15.17696225 7.94559436 -13.71342725 7.31667244 -12.25 6.6875 C-11.52039063 6.37876953 -10.79078125 6.07003906 -10.0390625 5.75195312 C-6.35363345 4.16051785 -3.08241839 2.63627889 0 0 Z " fill="#C9A04B" transform="translate(225,114)"/>
<path d="M0 0 C6.93 0 13.86 0 21 0 C21 0.33 21 0.66 21 1 C18.36 1.33 15.72 1.66 13 2 C16.18762365 4.12508244 18.26512223 4.5020163 22 5 C22 5.33 22 5.66 22 6 C15.4 6 8.8 6 2 6 C2 5.67 2 5.34 2 5 C3.98 5 5.96 5 8 5 C8 4.34 8 3.68 8 3 C5.36 2.67 2.72 2.34 0 2 C0 1.34 0 0.68 0 0 Z " fill="#272116" transform="translate(168,124)"/>
<path d="M0 0 C0.66 0.33 1.32 0.66 2 1 C-0.43404713 2.8173021 -2.87196449 4.6289489 -5.3125 6.4375 C-6.34793945 7.2119043 -6.34793945 7.2119043 -7.40429688 8.00195312 C-8.40493164 8.74155273 -8.40493164 8.74155273 -9.42578125 9.49609375 C-10.34484253 10.17949829 -10.34484253 10.17949829 -11.2824707 10.87670898 C-13 12 -13 12 -16 13 C-18.40133271 11.39911152 -20.702779 9.74271938 -23 8 C-22.24976563 7.82984375 -21.49953125 7.6596875 -20.7265625 7.484375 C-9.60921923 5.37070414 -9.60921923 5.37070414 0 0 Z " fill="#BE9847" transform="translate(224,105)"/>
<path d="M0 0 C0.33 0 0.66 0 1 0 C1 9.57 1 19.14 1 29 C-2.63 28.34 -6.26 27.68 -10 27 C-10 26.34 -10 25.68 -10 25 C-7.36 25 -4.72 25 -2 25 C-2.01047363 24.38479492 -2.02094727 23.76958984 -2.03173828 23.13574219 C-2.07338695 20.34053657 -2.09935416 17.54539634 -2.125 14.75 C-2.14175781 13.78191406 -2.15851563 12.81382813 -2.17578125 11.81640625 C-2.18222656 10.88183594 -2.18867188 9.94726562 -2.1953125 8.984375 C-2.20578613 8.12553711 -2.21625977 7.26669922 -2.22705078 6.38183594 C-1.98293323 3.82096404 -1.28990512 2.20488971 0 0 Z " fill="#3E3520" transform="translate(176,84)"/>
<path d="M0 0 C0 0.66 0 1.32 0 2 C-1.0725 2.20625 -2.145 2.4125 -3.25 2.625 C-7.75423579 4.27655312 -8.78988782 5.83478859 -11 10 C-11.33 10.99 -11.66 11.98 -12 13 C-12.66 13 -13.32 13 -14 13 C-14 9.7 -14 6.4 -14 3 C-14.66 3 -15.32 3 -16 3 C-16 2.34 -16 1.68 -16 1 C-13.89594609 0.83191581 -11.79175242 0.66558052 -9.6875 0.5 C-8.51574219 0.4071875 -7.34398437 0.314375 -6.13671875 0.21875 C-4.094806 0.07635011 -2.0468721 0 0 0 Z " fill="#AE8634" transform="translate(164,77)"/>
<path d="M0 0 C11.88 0 23.76 0 36 0 C36 0.66 36 1.32 36 2 C34.576875 2.12375 34.576875 2.12375 33.125 2.25 C29.89538209 2.65074923 29.89538209 2.65074923 28.625 5.0625 C28.315625 6.0215625 28.315625 6.0215625 28 7 C28 5.35 28 3.7 28 2 C25.08327116 1.97299325 22.16679323 1.95315763 19.25 1.9375 C18.425 1.92912109 17.6 1.92074219 16.75 1.91210938 C15.95078125 1.90888672 15.1515625 1.90566406 14.328125 1.90234375 C13.5949707 1.89710693 12.86181641 1.89187012 12.10644531 1.88647461 C9.9850996 1.93130836 9.9850996 1.93130836 7.93261719 2.53344727 C5.14287854 3.20691752 2.77655765 2.56793225 0 2 C0 1.34 0 0.68 0 0 Z " fill="#D0CA86" transform="translate(71,77)"/>
<path d="M0 0 C2.98705361 1.39619585 5.52644892 3.06116497 8.1875 5 C12.72840174 8.09264072 16.60255156 9.14326215 22 10 C22 10.33 22 10.66 22 11 C16.72 11 11.44 11 6 11 C5.67 10.34 5.34 9.68 5 9 C5.66 8.67 6.32 8.34 7 8 C6.38125 7.690625 5.7625 7.38125 5.125 7.0625 C3.75 6.375 2.375 5.6875 1 5 C0.375 2.4375 0.375 2.4375 0 0 Z " fill="#DCB563" transform="translate(233,149)"/>
<path d="M0 0 C1.9375 0.3125 1.9375 0.3125 4 1 C5.04449911 4.13349732 4.93423645 4.98968256 4 8 C4.66 8.33 5.32 8.66 6 9 C1.91556885 10.53166168 -1.79455657 9.63081652 -6 9 C-5.67 8.34 -5.34 7.68 -5 7 C-4.01 7 -3.02 7 -2 7 C-1.855625 6.21625 -1.71125 5.4325 -1.5625 4.625 C-1 2 -1 2 0 0 Z " fill="#CCB871" transform="translate(129,100)"/>
<path d="M0 0 C1.98 0 3.96 0 6 0 C6.33 0.99 6.66 1.98 7 3 C6.01 3.495 6.01 3.495 5 4 C4.59270772 6.32156597 4.25561323 8.6568787 4 11 C4.66 11.33 5.32 11.66 6 12 C-0.625 11.25 -0.625 11.25 -4 9 C-2.68 8.34 -1.36 7.68 0 7 C0 4.69 0 2.38 0 0 Z " fill="#BC9E56" transform="translate(133,101)"/>
<path d="M0 0 C1.32 0.33 2.64 0.66 4 1 C3.41161801 5.84111765 1.92346884 9.96071195 -0.0625 14.375 C-0.34416016 15.01566406 -0.62582031 15.65632812 -0.91601562 16.31640625 C-1.60459421 17.88029659 -2.30144711 19.44053941 -3 21 C-3.97591583 17.61682513 -3.85856655 15.4342662 -3 12 C-2.34 12 -1.68 12 -1 12 C-1.020625 10.948125 -1.04125 9.89625 -1.0625 8.8125 C-1.01103198 5.67295096 -0.73482813 3.03116604 0 0 Z " fill="#C3A960" transform="translate(133,119)"/>
<path d="M0 0 C0.33 0 0.66 0 1 0 C1 2.97 1 5.94 1 9 C1.66 9.33 2.32 9.66 3 10 C2.25 11.9375 2.25 11.9375 1 14 C-1.0625 14.8125 -1.0625 14.8125 -3 15 C-4 14 -4 14 -4.25 11.1875 C-3.97073341 7.62685097 -3.22283819 6.66740583 -1 4 C-0.29485154 1.85266073 -0.29485154 1.85266073 0 0 Z " fill="#CCA34E" transform="translate(219,80)"/>
<path d="M0 0 C0 0.66 0 1.32 0 2 C-0.87011719 2.18175781 -0.87011719 2.18175781 -1.7578125 2.3671875 C-6.28028442 3.33735474 -10.63750966 4.43397783 -15 6 C-15.33 4.68 -15.66 3.36 -16 2 C-17.65 2 -19.3 2 -21 2 C-21 1.67 -21 1.34 -21 1 C-13.98441385 0.4011085 -7.04321257 -0.13810221 0 0 Z " fill="#DEB661" transform="translate(245,77)"/>
<path d="M0 0 C7.92 0 15.84 0 24 0 C24 0.33 24 0.66 24 1 C19.71 1 15.42 1 11 1 C11 1.66 11 2.32 11 3 C10.34 3 9.68 3 9 3 C8.67 4.32 8.34 5.64 8 7 C7.690625 6.0409375 7.690625 6.0409375 7.375 5.0625 C6.10461791 2.65074923 6.10461791 2.65074923 2.875 2.25 C1.92625 2.1675 0.9775 2.085 0 2 C0 1.34 0 0.68 0 0 Z " fill="#9B7933" transform="translate(137,77)"/>
<path d="M0 0 C3.68069887 1.53643852 5.98775204 3.78150945 8.75 6.625 C9.54921875 7.44226563 10.3484375 8.25953125 11.171875 9.1015625 C12.07679688 10.04128906 12.07679688 10.04128906 13 11 C12.34 11.66 11.68 12.32 11 13 C6 8 6 8 3.875 5.6875 C2.04877868 3.66551763 2.04877868 3.66551763 -1 4 C-0.67 2.68 -0.34 1.36 0 0 Z " fill="#CFA657" transform="translate(221,137)"/>
<path d="M0 0 C1.5 1.375 1.5 1.375 3 3 C3 3.66 3 4.32 3 5 C5.475 5.99 5.475 5.99 8 7 C8 8.98 8 10.96 8 13 C5.6875 12.4375 5.6875 12.4375 3 11 C0.85884613 7.01302384 0 4.54765452 0 0 Z " fill="#EDE3A4" transform="translate(111,147)"/>
<path d="M0 0 C0.99 0 1.98 0 3 0 C4.2019586 6.22833095 3.93161919 9.37129115 1 15 C-1 13 -1 13 -1.1875 10.5625 C-1 8 -1 8 0 5 C0.03874921 3.33378384 0.0450286 1.66605828 0 0 Z " fill="#E1D08C" transform="translate(121,143)"/>
<path d="M0 0 C1.46726798 3.81489674 0.43336419 6.29011622 -1 10 C-0.01 10.33 0.98 10.66 2 11 C1.34 11 0.68 11 0 11 C-0.33 11.66 -0.66 12.32 -1 13 C-1.33 12.67 -1.66 12.34 -2 12 C-2.33 12.99 -2.66 13.98 -3 15 C-3.99 15 -4.98 15 -6 15 C-4.36041242 9.76727367 -2.61047965 4.84803364 0 0 Z " fill="#1E1C14" transform="translate(125,149)"/>
<path d="M0 0 C-2.64738916 1.4606285 -3.89448334 2 -7 2 C-7 8.6 -7 15.2 -7 22 C-7.33 22 -7.66 22 -8 22 C-8 16.06 -8 10.12 -8 4 C-9.32 3.67 -10.64 3.34 -12 3 C-8.2391768 -0.7608232 -5.0273023 -0.25136512 0 0 Z " fill="#A48745" transform="translate(184,130)"/>
<path d="M0 0 C6.6 1.98 13.2 3.96 20 6 C17 8 17 8 14.765625 7.64453125 C13.93546875 7.36996094 13.1053125 7.09539062 12.25 6.8125 C11.37085938 6.52375 10.49171875 6.235 9.5859375 5.9375 C6.31928004 4.75321331 3.16073861 3.44294589 0 2 C0 1.34 0 0.68 0 0 Z " fill="#9B7A35" transform="translate(137,120)"/>
<path d="M0 0 C0.33 0 0.66 0 1 0 C1.19738568 3.24947861 1.3811754 6.49958873 1.5625 9.75 C1.61857422 10.67039062 1.67464844 11.59078125 1.73242188 12.5390625 C1.78076172 13.42851563 1.82910156 14.31796875 1.87890625 15.234375 C1.9260376 16.05131836 1.97316895 16.86826172 2.02172852 17.70996094 C2.00020095 19.97882075 1.64612135 21.83320921 1 24 C1.99 24.33 2.98 24.66 4 25 C2.68 25.99 1.36 26.98 0 28 C0 18.76 0 9.52 0 0 Z " fill="#080A0B" transform="translate(191,85)"/>
<path d="M0 0 C2.97 0.99 5.94 1.98 9 3 C7.68 3.33 6.36 3.66 5 4 C4.67 5.32 4.34 6.64 4 8 C3.01 8 2.02 8 1 8 C1 7.01 1 6.02 1 5 C0.34 5 -0.32 5 -1 5 C-0.67 3.35 -0.34 1.7 0 0 Z " fill="#A07A2C" transform="translate(145,103)"/>
<path d="M0 0 C-0.33 0.99 -0.66 1.98 -1 3 C-0.01 3.33 0.98 3.66 2 4 C2 4.66 2 5.32 2 6 C-0.64 6.33 -3.28 6.66 -6 7 C-6 6.01 -6 5.02 -6 4 C-6.66 3.34 -7.32 2.68 -8 2 C-2.25 0 -2.25 0 0 0 Z " fill="#C39D48" transform="translate(205,125)"/>
<path d="M0 0 C0 0.66 0 1.32 0 2 C-1.093125 2.28875 -2.18625 2.5775 -3.3125 2.875 C-7.04013845 3.81893204 -7.04013845 3.81893204 -10 6 C-10.66666667 4.66666667 -11.33333333 3.33333333 -12 2 C-14.02463255 1.34786708 -14.02463255 1.34786708 -16 1 C-13.89594609 0.83191581 -11.79175242 0.66558052 -9.6875 0.5 C-8.51574219 0.4071875 -7.34398437 0.314375 -6.13671875 0.21875 C-4.094806 0.07635011 -2.0468721 0 0 0 Z " fill="#B9923C" transform="translate(164,77)"/>
<path d="M0 0 C1.9375 0.3125 1.9375 0.3125 4 1 C5.04449911 4.13349732 4.93423645 4.98968256 4 8 C4.66 8.33 5.32 8.66 6 9 C5.01 9.33 4.02 9.66 3 10 C2.34 9.34 1.68 8.68 1 8 C1.375 5.375 1.375 5.375 2 3 C1.01 2.67 0.02 2.34 -1 2 C-0.67 1.34 -0.34 0.68 0 0 Z " fill="#CAAF67" transform="translate(129,100)"/>
<path d="M0 0 C0.66 0.99 1.32 1.98 2 3 C-0.55068845 5.35448165 -1.71017358 5.98327924 -5.25 6.1875 C-6.1575 6.125625 -7.065 6.06375 -8 6 C-7.34 5.67 -6.68 5.34 -6 5 C-5.71125 4.34 -5.4225 3.68 -5.125 3 C-4 1 -4 1 -1.875 0.25 C-1.25625 0.1675 -0.6375 0.085 0 0 Z " fill="#ECE1A1" transform="translate(120,100)"/>
<path d="M0 0 C3.63 0 7.26 0 11 0 C11 0.66 11 1.32 11 2 C9.576875 2.12375 9.576875 2.12375 8.125 2.25 C4.89538209 2.65074923 4.89538209 2.65074923 3.625 5.0625 C3.41875 5.701875 3.2125 6.34125 3 7 C3 5.35 3 3.7 3 2 C2.01 1.67 1.02 1.34 0 1 C0 0.67 0 0.34 0 0 Z " fill="#D8D79B" transform="translate(96,77)"/>
<path d="M0 0 C0 0.99 0 1.98 0 3 C-6.0546875 3.1953125 -6.0546875 3.1953125 -8 3 C-8.66 2.34 -9.32 1.68 -10 1 C-6.78548731 -0.60725635 -3.56387464 -0.05748185 0 0 Z " fill="#D2AA50" transform="translate(176,130)"/>
<path d="M0 0 C4.69023454 0.56606279 9.34500026 1.18537505 14 2 C11.38058783 3.74627478 9.96175123 4.38722388 7 5 C7 4.34 7 3.68 7 3 C6.030625 2.87625 5.06125 2.7525 4.0625 2.625 C3.051875 2.41875 2.04125 2.2125 1 2 C0.67 1.34 0.34 0.68 0 0 Z " fill="#3A3727" transform="translate(123,115)"/>
<path d="M0 0 C2.64 0 5.28 0 8 0 C8.33 0.66 8.66 1.32 9 2 C4.545 2.495 4.545 2.495 0 3 C0 2.01 0 1.02 0 0 Z " fill="#DDD297" transform="translate(114,98)"/>
<path d="M0 0 C0.66 0.33 1.32 0.66 2 1 C-1.96 4.465 -1.96 4.465 -6 8 C-6.33 7.34 -6.66 6.68 -7 6 C-7.66 5.67 -8.32 5.34 -9 5 C-8.43410156 4.72285156 -7.86820313 4.44570312 -7.28515625 4.16015625 C-6.55167969 3.79792969 -5.81820312 3.43570313 -5.0625 3.0625 C-3.96615234 2.52302734 -3.96615234 2.52302734 -2.84765625 1.97265625 C-1.03750973 1.13628173 -1.03750973 1.13628173 0 0 Z " fill="#AC8947" transform="translate(225,114)"/>
<path d="M0 0 C2.25 0.25 2.25 0.25 4 1 C3.67 2.32 3.34 3.64 3 5 C0.69 4.67 -1.62 4.34 -4 4 C-2.25 1.9375 -2.25 1.9375 0 0 Z " fill="#D2C489" transform="translate(119,103)"/>
<path d="M0 0 C1.5 1.375 1.5 1.375 3 3 C3 3.66 3 4.32 3 5 C3.66 5 4.32 5 5 5 C5 5.99 5 6.98 5 8 C4.01 8 3.02 8 2 8 C0.23537317 4.91190305 0 3.76687864 0 0 Z " fill="#F3EFB2" transform="translate(111,147)"/>
<path d="M0 0 C2.475 0.495 2.475 0.495 5 1 C4.01 1.495 4.01 1.495 3 2 C3.309375 2.928125 3.309375 2.928125 3.625 3.875 C3.74875 4.57625 3.8725 5.2775 4 6 C3.34 6.66 2.68 7.32 2 8 C1.34 5.36 0.68 2.72 0 0 Z " fill="#222019" transform="translate(108,105)"/>
<path d="M0 0 C0.99 0.33 1.98 0.66 3 1 C3 2.32 3 3.64 3 5 C1.125 5.625 1.125 5.625 -1 6 C-1.66 5.34 -2.32 4.68 -3 4 C-2.01 3.67 -1.02 3.34 0 3 C0 2.01 0 1.02 0 0 Z " fill="#191515" transform="translate(220,102)"/>
<path d="M0 0 C1.37432457 3.81756824 0.67975039 7.07255329 0 11 C-0.99 10.67 -1.98 10.34 -3 10 C-2.39009109 6.44219804 -1.4216319 3.3171411 0 0 Z " fill="#231C10" transform="translate(149,94)"/>
<path d="M0 0 C1.2065625 0.0309375 1.2065625 0.0309375 2.4375 0.0625 C1.4475 0.7225 0.4575 1.3825 -0.5625 2.0625 C-1.75482613 4.11253955 -1.75482613 4.11253955 -2.5625 6.0625 C-3.2225 6.0625 -3.8825 6.0625 -4.5625 6.0625 C-3.48963568 0.08511307 -3.48963568 0.08511307 0 0 Z " fill="#242014" transform="translate(195.5625,78.9375)"/>
<path d="M0 0 C0.66 0.99 1.32 1.98 2 3 C1.01 4.485 1.01 4.485 0 6 C-1.32 5.34 -2.64 4.68 -4 4 C-3.67 3.01 -3.34 2.02 -3 1 C-2.67 1.66 -2.34 2.32 -2 3 C-1.34 2.01 -0.68 1.02 0 0 Z " fill="#E1D799" transform="translate(119,157)"/>
<path d="M0 0 C0.95465783 2.16967689 1.14401212 3.56328793 0.3984375 5.82421875 C-0.35870385 7.5684743 -1.17609198 9.28627131 -2 11 C-2.66 11 -3.32 11 -4 11 C-2.7874262 7.27566618 -1.49140021 3.62197194 0 0 Z " fill="#242116" transform="translate(130,137)"/>
<path d="M0 0 C0 0.33 0 0.66 0 1 C-3.3 1.33 -6.6 1.66 -10 2 C-10 1.34 -10 0.68 -10 0 C-6.30581799 -1.231394 -3.7943739 -0.64432764 0 0 Z " fill="#C8A250" transform="translate(197,122)"/>
<path d="M0 0 C5.75 1.625 5.75 1.625 8 5 C4.7 4.01 1.4 3.02 -2 2 C-1.34 1.34 -0.68 0.68 0 0 Z " fill="#1E1C0F" transform="translate(140,119)"/>
<path d="M0 0 C2.475 0.495 2.475 0.495 5 1 C4.01 1.495 4.01 1.495 3 2 C2.27840576 3.64363134 1.60648579 5.31050386 1 7 C0.31292445 4.50935112 0 2.62113708 0 0 Z " fill="#C2A55C" transform="translate(133,101)"/>
<path d="M0 0 C0.99 0.33 1.98 0.66 3 1 C2.67 1.66 2.34 2.32 2 3 C2.66 3.33 3.32 3.66 4 4 C3.01 5.32 2.02 6.64 1 8 C0.34 5.69 -0.32 3.38 -1 1 C-0.67 0.67 -0.34 0.34 0 0 Z " fill="#FCF2AD" transform="translate(92,98)"/>
<path d="M0 0 C0.66 1.32 1.32 2.64 2 4 C1.01 5.32 0.02 6.64 -1 8 C-1 7.34 -1 6.68 -1 6 C-1.66 5.67 -2.32 5.34 -3 5 C-2.01 3.35 -1.02 1.7 0 0 Z " fill="#1A1913" transform="translate(229,84)"/>
<path d="M0 0 C1.5625 1.75 1.5625 1.75 3 4 C2.6875 6.25 2.6875 6.25 2 8 C1.01 8 0.02 8 -1 8 C-0.67 5.36 -0.34 2.72 0 0 Z " fill="#201F19" transform="translate(84,86)"/>
<path d="M0 0 C-0.33 0.66 -0.66 1.32 -1 2 C-3.31 2 -5.62 2 -8 2 C-8 1.34 -8 0.68 -8 0 C-5.13822943 -1.43088528 -3.06624227 -0.59991697 0 0 Z " fill="#131210" transform="translate(119,107)"/>
</svg>